# Blender v2.81 (sub 16) OBJ File: 'tent.blend'
# www.blender.org
mtllib tent.mtl
o Cube
v -2.155356 0.085381 2.813635
v -2.324539 0.227341 2.813635
v -2.155356 0.085381 2.729918
v -2.324539 0.227341 2.729918
v 0.002459 2.653097 2.813636
v -0.053164 2.934260 2.813636
v 0.002459 2.653097 2.729918
v -0.053164 2.934260 2.729918
v 2.208520 0.295135 2.729918
v 2.208520 0.074282 2.729918
v 2.208520 0.295135 2.805361
v 2.208520 0.074282 2.805361
v -2.208520 0.295135 2.729918
v -2.208520 0.074282 2.729918
v -2.208520 0.295135 2.805361
v -2.208520 0.074282 2.805361
v 2.324539 0.227341 2.813636
v 2.155356 0.085380 2.813636
v 2.324539 0.227341 2.729918
v 2.155356 0.085380 2.729918
v 0.053164 2.934261 2.813636
v 0.001205 2.653098 2.813636
v 0.053164 2.934261 2.729918
v 0.001205 2.653098 2.729918
v -2.155356 0.085381 -2.368194
v -2.324539 0.227341 -2.368194
v -2.155356 0.085381 -2.451912
v -2.324539 0.227341 -2.451912
v 0.000580 2.653006 -2.368194
v -0.053164 2.934260 -2.368194
v 0.000580 2.653006 -2.451912
v -0.053164 2.934260 -2.451912
v 2.208520 0.295135 -2.448470
v 2.208520 0.074282 -2.448470
v 2.208520 0.295135 -2.368194
v 2.208520 0.074282 -2.368194
v -2.208520 0.295135 -2.448470
v -2.208520 0.074282 -2.448470
v -2.208520 0.295135 -2.368194
v -2.208520 0.074282 -2.368194
v 2.324539 0.227341 -2.368194
v 2.155356 0.085380 -2.368194
v 2.324539 0.227341 -2.451912
v 2.155356 0.085380 -2.451912
v 0.053164 2.934261 -2.368194
v 0.000273 2.652581 -2.368194
v 0.053164 2.934261 -2.451912
v 0.000273 2.652581 -2.451912
v 0.001203 2.995584 -2.451912
v 0.001203 2.995584 -2.368194
v -0.001203 2.997295 -2.451912
v -0.001203 2.997295 -2.368194
v -2.166661 0.295135 2.822112
v -2.166661 0.074282 2.822112
v -2.250379 0.295135 2.780938
v -2.250379 0.074282 2.822112
v -2.166662 0.295135 -2.478337
v -2.166662 0.074282 -2.478337
v -2.250379 0.295135 -2.437117
v -2.250379 0.074282 -2.478337
v 2.250379 0.295135 2.780938
v 2.250379 0.074282 2.822112
v 2.166662 0.295135 2.822112
v 2.166662 0.074282 2.822112
v 2.250379 0.295135 -2.437117
v 2.250379 0.074282 -2.478337
v 2.166661 0.295135 -2.478337
v 2.166661 0.074282 -2.478337
v -0.053164 2.831473 2.729918
v 0.053164 2.831473 2.729918
v -0.053164 2.831473 -2.368194
v 0.053164 2.831473 -2.368194
v 0.000000 0.295135 -2.368194
v 0.000000 0.074282 -2.368194
v 0.000000 0.295135 -2.448470
v 0.000000 0.074282 -2.448470
v 0.000000 2.652092 -2.451912
v -0.000653 2.997924 2.729918
v -0.000653 2.997924 2.811535
v -0.053164 2.934260 -2.451912
v -0.053164 2.934260 -2.368194
v 0.053164 2.934261 -2.368194
v 0.053164 2.934261 -2.451912
v 0.001203 2.995584 -2.368194
v 0.001203 2.995584 -2.451912
v -0.001203 2.997295 -2.451912
v -0.001203 2.997295 -2.368194
v -0.053762 3.027586 2.729918
v -0.053762 3.027586 2.813636
v 0.052566 3.027586 2.813636
v 0.052566 3.027586 2.729918
v -0.001251 3.091249 2.729918
v -0.001251 3.091249 2.811535
v -0.053762 3.027586 -2.451912
v -0.053762 3.027586 -2.368194
v 0.052566 3.027586 -2.368194
v 0.052566 3.027586 -2.451912
v 0.000605 3.088909 -2.368194
v 0.000605 3.088909 -2.451912
v -0.001801 3.090620 -2.451912
v -0.001801 3.090620 -2.368194
v 1.366177 0.988554 -2.400973
v 0.707012 1.868263 -2.404908
v 1.366177 0.988554 2.750685
v 0.707012 1.868263 2.760650
v -1.366177 0.988554 2.750685
v -0.707012 1.868262 2.760650
v -1.366177 0.988554 -2.400973
v -0.707012 1.868262 -2.404908
v -0.053164 2.829296 2.729918
v 0.053164 2.829296 2.729918
v -0.053164 2.829296 -2.368194
v 0.053164 2.829296 -2.368194
v -2.250379 0.190170 2.780938
v -2.250379 0.190170 -2.437117
v 2.250379 0.190170 2.780938
v 2.250379 0.190170 -2.437117
v 1.366177 0.883589 -2.400973
v 0.707012 1.763298 -2.404908
v 1.366177 0.883589 2.750685
v 0.707012 1.763298 2.760650
v -1.366177 0.883589 2.750685
v -0.707012 1.763298 2.760650
v -1.366177 0.883589 -2.400973
v -0.707012 1.763298 -2.404908
vt 0.625000 0.500000
vt 0.875000 0.500000
vt 0.875000 0.750000
vt 0.625000 0.750000
vt 0.125000 0.500000
vt 0.375000 0.500000
vt 0.375000 0.750000
vt 0.125000 0.750000
vt 0.375000 0.250000
vt 0.625000 0.250000
vt 0.625000 0.500000
vt 0.375000 0.500000
vt 0.375000 0.000000
vt 0.625000 0.000000
vt 0.625000 0.250000
vt 0.375000 0.250000
vt 0.375000 0.000000
vt 0.625000 0.000000
vt 0.625000 0.250000
vt 0.375000 0.250000
vt 0.375000 0.250000
vt 0.625000 0.250000
vt 0.625000 0.500000
vt 0.375000 0.500000
vt 0.375000 0.500000
vt 0.625000 0.500000
vt 0.625000 0.750000
vt 0.375000 0.750000
vt 0.375000 0.750000
vt 0.625000 0.750000
vt 0.625000 1.000000
vt 0.375000 1.000000
vt 0.125000 0.500000
vt 0.375000 0.500000
vt 0.375000 0.750000
vt 0.125000 0.750000
vt 0.625000 0.500000
vt 0.875000 0.500000
vt 0.875000 0.750000
vt 0.625000 0.750000
vt 0.625000 0.500000
vt 0.875000 0.500000
vt 0.875000 0.750000
vt 0.625000 0.750000
vt 0.125000 0.500000
vt 0.375000 0.500000
vt 0.375000 0.750000
vt 0.125000 0.750000
vt 0.375000 0.250000
vt 0.625000 0.250000
vt 0.625000 0.500000
vt 0.375000 0.500000
vt 0.375000 0.000000
vt 0.625000 0.000000
vt 0.625000 0.250000
vt 0.375000 0.250000
vt 0.000000 0.000000
vt 0.625000 0.500000
vt 0.875000 0.500000
vt 0.875000 0.750000
vt 0.625000 0.750000
vt 0.375000 0.500000
vt 0.625000 0.500000
vt 0.625000 0.750000
vt 0.375000 0.750000
vt 0.375000 0.250000
vt 0.625000 0.250000
vt 0.625000 0.500000
vt 0.375000 0.500000
vt 0.375000 0.000000
vt 0.625000 0.000000
vt 0.625000 0.250000
vt 0.375000 0.250000
vt 0.500000 0.000000
vt 0.625000 0.000000
vt 0.625000 0.250000
vt 0.500000 0.250000
vt 0.500000 0.250000
vt 0.625000 0.250000
vt 0.625000 0.500000
vt 0.500000 0.500000
vt 0.375000 0.625000
vt 0.625000 0.625000
vt 0.625000 0.750000
vt 0.375000 0.750000
vt 0.375000 0.750000
vt 0.625000 0.750000
vt 0.625000 1.000000
vt 0.375000 1.000000
vt 0.125000 0.625000
vt 0.375000 0.625000
vt 0.375000 0.750000
vt 0.125000 0.750000
vt 0.625000 0.500000
vt 0.875000 0.500000
vt 0.875000 0.750000
vt 0.625000 0.750000
vt 0.625000 0.500000
vt 0.875000 0.500000
vt 0.875000 0.750000
vt 0.625000 0.750000
vt 0.375000 0.500000
vt 0.625000 0.500000
vt 0.625000 0.750000
vt 0.375000 0.750000
vt 0.375000 0.250000
vt 0.625000 0.250000
vt 0.625000 0.500000
vt 0.375000 0.500000
vt 0.375000 0.000000
vt 0.625000 0.000000
vt 0.625000 0.250000
vt 0.375000 0.250000
vt 0.000000 0.000000
vt 0.625000 0.500000
vt 0.375000 0.250000
vt 0.000000 0.000000
vt 0.625000 0.250000
vt 0.625000 0.500000
vt 0.625000 0.250000
vt 0.375000 0.000000
vt 0.375000 0.250000
vt 0.375000 0.000000
vt 0.375000 0.000000
vt 0.625000 0.000000
vt 0.625000 0.250000
vt 0.375000 0.250000
vt 0.375000 0.250000
vt 0.625000 0.250000
vt 0.625000 0.500000
vt 0.375000 0.500000
vt 0.375000 0.500000
vt 0.625000 0.500000
vt 0.625000 0.750000
vt 0.375000 0.750000
vt 0.375000 0.750000
vt 0.625000 0.750000
vt 0.625000 1.000000
vt 0.375000 1.000000
vt 0.125000 0.500000
vt 0.375000 0.500000
vt 0.375000 0.750000
vt 0.125000 0.750000
vt 0.625000 0.500000
vt 0.875000 0.500000
vt 0.875000 0.750000
vt 0.625000 0.750000
vt 0.375000 0.000000
vt 0.625000 0.000000
vt 0.625000 0.250000
vt 0.375000 0.250000
vt 0.375000 0.250000
vt 0.625000 0.250000
vt 0.625000 0.500000
vt 0.375000 0.500000
vt 0.375000 0.500000
vt 0.625000 0.500000
vt 0.625000 0.750000
vt 0.375000 0.750000
vt 0.375000 0.750000
vt 0.625000 0.750000
vt 0.625000 1.000000
vt 0.375000 1.000000
vt 0.125000 0.500000
vt 0.375000 0.500000
vt 0.375000 0.750000
vt 0.125000 0.750000
vt 0.625000 0.500000
vt 0.875000 0.500000
vt 0.875000 0.750000
vt 0.625000 0.750000
vt 0.000000 0.000000
vt 0.000000 0.000000
vt 0.000000 0.000000
vt 0.000000 0.000000
vt 0.000000 0.000000
vt 0.000000 0.000000
vt 0.125000 0.500000
vt 0.375000 0.500000
vt 0.375000 0.500000
vt 0.625000 0.500000
vt 0.375000 0.250000
vt 0.375000 0.500000
vt 0.375000 0.000000
vt 0.375000 0.250000
vt 0.000000 0.000000
vt 0.375000 0.250000
vt 0.375000 0.000000
vt 0.000000 0.000000
vt 0.375000 0.250000
vt 0.000000 0.000000
vt 0.000000 0.000000
vt 0.000000 0.000000
vt 0.375000 0.250000
vt 0.375000 0.250000
vt 0.000000 0.000000
vt 0.375000 0.000000
vt 0.375000 0.000000
vt 0.625000 0.250000
vt 0.625000 0.500000
vt 0.000000 0.000000
vt 0.375000 0.000000
vt 0.000000 0.000000
vt 0.625000 0.500000
vt 0.625000 0.250000
vt 0.625000 0.500000
vt 0.625000 0.250000
vt 0.625000 0.250000
vt 0.625000 0.500000
vt 0.000000 0.000000
vt 0.000000 0.000000
vt 0.000000 0.000000
vt 0.125000 0.000000
vt 0.208333 0.000000
vt 0.208333 0.083333
vt 0.125000 0.083333
vt 0.208333 0.083333
vt 0.000000 0.000000
vt 0.000000 0.000000
vt 0.125000 0.083333
vt 0.125000 0.000000
vt 0.000000 0.000000
vt 0.000000 0.000000
vt 0.208333 0.000000
vt 0.000000 0.000000
vt 0.000000 0.000000
vt 0.000000 0.000000
vt 0.000000 0.000000
vt 0.000000 0.000000
vt 0.416667 0.000000
vt 0.250000 0.000000
vt 0.250000 0.166667
vt 0.416667 0.166667
vt 0.375000 0.000000
vt 0.250000 0.000000
vt 0.416667 0.000000
vt 0.625000 0.000000
vt 0.625000 0.250000
vt 0.416667 0.166667
vt 0.250000 0.166667
vt 0.375000 0.250000
vn -0.6428 -0.7660 0.0000
vn 0.0000 0.0000 -1.0000
vn 0.7656 -0.6434 0.0000
vn -0.7660 0.6428 0.0000
vn 0.0000 1.0000 0.0000
vn 0.0000 -1.0000 0.0000
vn 0.0000 0.0000 1.0000
vn 1.0000 0.0000 0.0000
vn -1.0000 0.0000 0.0000
vn 0.6428 -0.7660 0.0000
vn 0.7660 0.6428 0.0000
vn -0.7661 -0.6427 0.0000
vn 0.7658 -0.6430 0.0000
vn -0.7659 -0.6430 0.0000
vn 0.5796 0.8149 0.0000
vn -0.2378 0.0901 0.9671
vn -0.2381 0.0902 -0.9670
vn 0.2378 0.0901 0.9671
vn 0.2381 0.0902 -0.9670
vn -0.0000 0.0062 1.0000
vn -1.0000 -0.0064 0.0000
vn 0.0397 0.0003 0.9992
vn -0.7714 0.6363 0.0000
vn 0.7637 0.6456 0.0000
vn 0.7629 0.6465 0.0000
vn -0.7716 0.6361 0.0000
vn 1.0000 0.0064 0.0000
vn -0.0393 -0.0003 0.9992
vn 0.8524 0.5228 0.0000
vn -0.8524 0.5228 0.0000
vn 0.8524 -0.5228 0.0000
vn -0.8524 -0.5228 0.0000
vn 0.6171 0.7869 -0.0000
vn 0.8003 0.5996 -0.0000
vn -0.6171 0.7869 0.0000
vn -0.8003 0.5996 0.0000
vn -0.6171 -0.7869 0.0000
vn -0.8003 -0.5996 0.0000
vn 0.6171 -0.7869 -0.0000
vn 0.8003 -0.5996 -0.0000
vn -0.0151 0.0000 0.9999
vn 0.0469 0.0000 0.9989
vn 0.0342 0.0000 0.9994
vn 0.0151 0.0000 0.9999
vn -0.0469 0.0000 0.9989
vn -0.0342 0.0000 0.9994
vn -0.0060 0.0000 -1.0000
vn 0.0561 0.0000 -0.9984
vn 0.0408 0.0000 -0.9992
vn 0.0060 0.0000 -1.0000
vn -0.0408 0.0000 -0.9992
vn -0.0561 0.0000 -0.9984
usemtl Wood
s off
f 1/1/1 2/2/1 4/3/1 3/4/1
f 3/5/2 4/6/2 8/7/2 7/8/2
f 3/9/3 7/10/3 5/11/3 1/12/3
f 8/13/4 4/14/4 2/15/4 6/16/4
f 9/17/5 13/18/5 15/19/5 11/20/5
f 14/21/6 10/22/6 12/23/6 16/24/6
f 12/25/7 11/26/7 15/27/7 16/28/7
f 10/29/8 9/30/8 11/31/8 12/32/8
f 14/33/2 13/34/2 9/35/2 10/36/2
f 16/37/9 15/38/9 13/39/9 14/40/9
f 17/41/10 18/42/10 20/43/10 19/44/10
f 19/45/2 20/46/2 24/47/2 23/48/2
f 19/49/11 23/50/11 21/51/11 17/52/11
f 24/53/12 20/54/12 18/55/12 22/56/12
f 8/13/2 78/57/2 23/50/2
f 25/58/1 26/59/1 28/60/1 27/61/1
f 29/62/7 30/63/7 26/64/7 25/65/7
f 27/66/13 31/67/13 29/68/13 25/69/13
f 32/70/4 28/71/4 26/72/4 30/73/4
f 75/74/5 37/75/5 39/76/5 73/77/5
f 76/78/6 34/79/6 36/80/6 74/81/6
f 74/82/7 73/83/7 39/84/7 40/85/7
f 34/86/8 33/87/8 35/88/8 36/89/8
f 76/90/2 75/91/2 33/92/2 34/93/2
f 40/94/9 39/95/9 37/96/9 38/97/9
f 41/98/10 42/99/10 44/100/10 43/101/10
f 45/102/7 46/103/7 42/104/7 41/105/7
f 43/106/11 47/107/11 45/108/11 41/109/11
f 48/110/14 44/111/14 42/112/14 46/113/14
f 45/114/7 50/115/7 52/116/7 30/117/7
f 45/108/7 47/107/7 83/118/7 82/119/7
f 50/115/15 49/120/15 51/121/15 52/116/15
f 32/70/7 30/73/7 81/122/7 80/123/7
f 53/124/5 57/125/5 59/126/5 55/127/5
f 58/128/6 54/129/6 56/130/6 60/131/6
f 56/132/9 55/133/9 59/134/9 60/135/9
f 54/136/16 53/137/16 55/138/16 56/139/16
f 58/140/8 57/141/8 53/142/8 54/143/8
f 60/144/17 59/145/17 57/146/17 58/147/17
f 61/148/5 65/149/5 67/150/5 63/151/5
f 66/152/6 62/153/6 64/154/6 68/155/6
f 64/156/9 63/157/9 67/158/9 68/159/9
f 62/160/18 61/161/18 63/162/18 64/163/18
f 66/164/8 65/165/8 61/166/8 62/167/8
f 68/168/19 67/169/19 65/170/19 66/171/19
f 23/172/5 45/114/5 30/117/5 8/173/5
f 70/174/6 69/175/6 71/176/6 72/177/6
f 45/114/9 72/177/9 70/174/9 23/172/9
f 8/173/8 69/175/8 71/176/8 30/117/8
f 38/178/2 37/179/2 75/91/2 76/90/2
f 36/180/7 35/181/7 73/83/7 74/82/7
f 38/182/6 76/78/6 74/81/6 40/183/6
f 33/184/5 75/74/5 73/77/5 35/185/5
f 18/55/7 17/52/7 21/51/7 22/56/7
f 2/15/7 1/12/7 5/11/7 6/16/7
f 6/16/20 5/11/20 22/56/20 21/51/20 79/186/20
f 80/123/21 81/122/21 95/187/21 94/188/21
f 6/16/22 79/186/22 93/189/22 89/190/22
f 45/114/7 30/117/7 46/191/7 29/192/7
f 28/71/2 32/70/2 31/67/2 27/66/2
f 44/111/2 48/110/2 47/107/2 43/106/2
f 31/67/2 32/70/2 47/107/2 48/110/2
f 49/120/2 47/107/2 32/70/2 51/121/2
f 81/193/7 87/194/7 101/195/7 95/196/7
f 86/197/2 80/123/2 94/188/2 100/198/2
f 51/121/7 32/70/7 80/123/7 86/197/7
f 47/107/7 49/120/7 85/199/7 83/118/7
f 49/120/7 50/115/7 84/200/7 85/199/7
f 30/117/7 52/116/7 87/194/7 81/193/7
f 52/116/7 51/121/7 86/197/7 87/194/7
f 50/115/7 45/114/7 82/201/7 84/200/7
f 88/202/23 89/190/23 93/189/23 92/203/23
f 90/204/24 91/205/24 92/203/24 93/189/24
f 96/206/25 97/207/25 99/208/25 98/209/25
f 94/188/26 95/187/26 101/195/26 100/198/26
f 82/119/27 83/118/27 97/207/27 96/206/27
f 79/186/28 21/51/28 90/204/28 93/189/28
f 85/199/21 84/200/21 98/209/21 99/208/21
f 21/51/27 23/50/27 91/205/27 90/204/27
f 8/13/21 6/16/21 89/190/21 88/202/21
f 84/200/7 82/201/7 96/210/7 98/209/7
f 78/57/2 8/13/2 88/202/2 92/203/2
f 83/118/2 85/199/2 99/208/2 97/207/2
f 23/50/2 78/57/2 92/203/2 91/205/2
f 87/194/27 86/197/27 100/198/27 101/195/27
f 8/13/2 23/50/2 7/211/2 24/212/2
usemtl Cloth
f 105/213/29 103/214/29 45/114/29 23/172/29
f 109/215/30 107/216/30 8/173/30 30/117/30
f 125/217/31 112/218/31 110/219/31 123/220/31
f 121/221/32 111/222/32 113/223/32 119/224/32
f 10/225/5 36/226/5 74/227/5 40/228/5 14/229/5
f 61/148/33 65/149/33 102/230/33 104/231/33
f 104/231/34 102/230/34 103/214/34 105/213/34
f 59/126/35 55/127/35 106/232/35 108/233/35
f 108/233/36 106/232/36 107/216/36 109/215/36
f 116/234/37 120/235/37 118/236/37 117/237/37
f 120/235/38 121/221/38 119/224/38 118/236/38
f 115/238/39 124/239/39 122/240/39 114/241/39
f 124/239/40 125/217/40 123/220/40 122/240/40
f 106/232/41 122/240/41 123/220/41 107/216/41
f 107/216/42 123/220/42 110/219/42 8/173/42
f 55/127/43 114/241/43 122/240/43 106/232/43
f 105/213/44 121/221/44 120/235/44 104/231/44
f 23/172/45 111/222/45 121/221/45 105/213/45
f 104/231/46 120/235/46 116/234/46 61/148/46
f 109/215/47 125/217/47 124/239/47 108/233/47
f 30/117/48 112/218/48 125/217/48 109/215/48
f 108/233/49 124/239/49 115/238/49 59/126/49
f 102/230/50 118/236/50 119/224/50 103/214/50
f 65/149/51 117/237/51 118/236/51 102/230/51
f 103/214/52 119/224/52 113/223/52 45/114/52
l 75 77
